<svg width="100" height="14" viewBox="0 0 100 14" fill="none" xmlns="http://www.w3.org/2000/svg">
<path d="M9.368 2.332V13.5H7.128V8.748H2.344V13.5H0.104V2.332H2.344V6.924H7.128V2.332H9.368ZM15.5088 13.644C14.6554 13.644 13.8874 13.4573 13.2048 13.084C12.5221 12.7 11.9834 12.1613 11.5888 11.468C11.2048 10.7747 11.0128 9.97467 11.0128 9.068C11.0128 8.16133 11.2101 7.36133 11.6048 6.668C12.0101 5.97467 12.5594 5.44133 13.2528 5.068C13.9461 4.684 14.7194 4.492 15.5728 4.492C16.4261 4.492 17.1994 4.684 17.8928 5.068C18.5861 5.44133 19.1301 5.97467 19.5248 6.668C19.9301 7.36133 20.1328 8.16133 20.1328 9.068C20.1328 9.97467 19.9248 10.7747 19.5087 11.468C19.1034 12.1613 18.5488 12.7 17.8448 13.084C17.1514 13.4573 16.3728 13.644 15.5088 13.644ZM15.5088 11.692C15.9141 11.692 16.2928 11.596 16.6448 11.404C17.0074 11.2013 17.2954 10.9027 17.5088 10.508C17.7221 10.1133 17.8288 9.63333 17.8288 9.068C17.8288 8.22533 17.6048 7.58 17.1568 7.132C16.7194 6.67333 16.1808 6.444 15.5408 6.444C14.9008 6.444 14.3621 6.67333 13.9248 7.132C13.4981 7.58 13.2848 8.22533 13.2848 9.068C13.2848 9.91067 13.4928 10.5613 13.9088 11.02C14.3354 11.468 14.8688 11.692 15.5088 11.692ZM34.0639 4.636L31.4719 13.5H29.0559L27.4399 7.308L25.8239 13.5H23.3919L20.7839 4.636H23.0559L24.6239 11.388L26.3199 4.636H28.6879L30.3519 11.372L31.9199 4.636H34.0639ZM40.2244 3.58C39.8297 3.58 39.499 3.45733 39.2324 3.212C38.9764 2.956 38.8484 2.64133 38.8484 2.268C38.8484 1.89467 38.9764 1.58533 39.2324 1.34C39.499 1.084 39.8297 0.955999 40.2244 0.955999C40.619 0.955999 40.9444 1.084 41.2004 1.34C41.467 1.58533 41.6004 1.89467 41.6004 2.268C41.6004 2.64133 41.467 2.956 41.2004 3.212C40.9444 3.45733 40.619 3.58 40.2244 3.58ZM41.3284 4.636V13.5H39.0884V4.636H41.3284ZM46.1495 6.476V10.764C46.1495 11.0627 46.2188 11.2813 46.3575 11.42C46.5068 11.548 46.7522 11.612 47.0935 11.612H48.1335V13.5H46.7255C44.8375 13.5 43.8935 12.5827 43.8935 10.748V6.476H42.8375V4.636H43.8935V2.444H46.1495V4.636H48.1335V6.476H46.1495ZM65.8451 4.636L63.2531 13.5H60.8371L59.2211 7.308L57.6051 13.5H55.1731L52.5651 4.636H54.8371L56.4051 11.388L58.1011 4.636H60.4691L62.1331 11.372L63.7011 4.636H65.8451ZM70.9931 13.644C70.1398 13.644 69.3718 13.4573 68.6891 13.084C68.0065 12.7 67.4678 12.1613 67.0731 11.468C66.6891 10.7747 66.4971 9.97467 66.4971 9.068C66.4971 8.16133 66.6945 7.36133 67.0891 6.668C67.4945 5.97467 68.0438 5.44133 68.7371 5.068C69.4305 4.684 70.2038 4.492 71.0571 4.492C71.9105 4.492 72.6838 4.684 73.3771 5.068C74.0705 5.44133 74.6145 5.97467 75.0091 6.668C75.4145 7.36133 75.6171 8.16133 75.6171 9.068C75.6171 9.97467 75.4091 10.7747 74.9931 11.468C74.5878 12.1613 74.0331 12.7 73.3291 13.084C72.6358 13.4573 71.8571 13.644 70.9931 13.644ZM70.9931 11.692C71.3985 11.692 71.7771 11.596 72.1291 11.404C72.4918 11.2013 72.7798 10.9027 72.9931 10.508C73.2065 10.1133 73.3131 9.63333 73.3131 9.068C73.3131 8.22533 73.0891 7.58 72.6411 7.132C72.2038 6.67333 71.6651 6.444 71.0251 6.444C70.3851 6.444 69.8465 6.67333 69.4091 7.132C68.9825 7.58 68.7691 8.22533 68.7691 9.068C68.7691 9.91067 68.9771 10.5613 69.3931 11.02C69.8198 11.468 70.3531 11.692 70.9931 11.692ZM79.5003 6.012C79.7883 5.54267 80.1616 5.17467 80.6203 4.908C81.0896 4.64133 81.6229 4.508 82.2203 4.508V6.86H81.6283C80.9243 6.86 80.3909 7.02533 80.0283 7.356C79.6763 7.68667 79.5003 8.26267 79.5003 9.084V13.5H77.2603V4.636H79.5003V6.012ZM88.977 13.5L85.969 9.724V13.5H83.729V1.66H85.969V8.396L88.945 4.636H91.857L87.953 9.084L91.889 13.5H88.977ZM96.4648 13.644C95.7394 13.644 95.0888 13.516 94.5128 13.26C93.9368 12.9933 93.4781 12.636 93.1368 12.188C92.8061 11.74 92.6248 11.244 92.5928 10.7H94.8488C94.8914 11.0413 95.0568 11.324 95.3448 11.548C95.6434 11.772 96.0114 11.884 96.4488 11.884C96.8754 11.884 97.2061 11.7987 97.4408 11.628C97.6861 11.4573 97.8088 11.2387 97.8088 10.972C97.8088 10.684 97.6594 10.4707 97.3608 10.332C97.0728 10.1827 96.6088 10.0227 95.9688 9.852C95.3074 9.692 94.7634 9.52667 94.3368 9.356C93.9208 9.18533 93.5581 8.924 93.2488 8.572C92.9501 8.22 92.8008 7.74533 92.8008 7.148C92.8008 6.65733 92.9394 6.20933 93.2168 5.804C93.5048 5.39867 93.9101 5.07867 94.4328 4.844C94.9661 4.60933 95.5901 4.492 96.3048 4.492C97.3608 4.492 98.2034 4.75867 98.8328 5.292C99.4621 5.81467 99.8088 6.524 99.8728 7.42H97.7288C97.6968 7.068 97.5474 6.79067 97.2808 6.588C97.0248 6.37467 96.6781 6.268 96.2408 6.268C95.8354 6.268 95.5208 6.34267 95.2968 6.492C95.0834 6.64133 94.9768 6.84933 94.9768 7.116C94.9768 7.41467 95.1261 7.644 95.4248 7.804C95.7234 7.95333 96.1874 8.108 96.8168 8.268C97.4568 8.428 97.9848 8.59333 98.4008 8.764C98.8168 8.93467 99.1741 9.20133 99.4728 9.564C99.7821 9.916 99.9421 10.3853 99.9528 10.972C99.9528 11.484 99.8088 11.9427 99.5208 12.348C99.2434 12.7533 98.8381 13.0733 98.3048 13.308C97.7821 13.532 97.1688 13.644 96.4648 13.644Z" fill="#242527"/>
</svg>
