<svg width="50" height="48" viewBox="0 0 50 48" fill="none" xmlns="http://www.w3.org/2000/svg">
<g filter="url(#filter0_d_21439_28)">
<rect opacity="0.1" x="4" width="42" height="40" rx="20" fill="#2387C0"/>
<path d="M31.6768 17.084C31.6768 17.2402 31.6768 17.3652 31.6768 17.5215C31.6768 21.8652 28.3955 26.834 22.3643 26.834C20.4893 26.834 18.7705 26.3027 17.333 25.3652C17.583 25.3965 17.833 25.4277 18.1143 25.4277C19.6455 25.4277 21.0518 24.8965 22.1768 24.0215C20.7393 23.9902 19.5205 23.0527 19.1143 21.7402C19.333 21.7715 19.5205 21.8027 19.7393 21.8027C20.0205 21.8027 20.333 21.7402 20.583 21.6777C19.083 21.3652 17.958 20.0527 17.958 18.459V18.4277C18.3955 18.6777 18.9268 18.8027 19.458 18.834C18.5518 18.2402 17.9893 17.2402 17.9893 16.1152C17.9893 15.4902 18.1455 14.9277 18.4268 14.459C20.0518 16.4277 22.4893 17.7402 25.208 17.8965C25.1455 17.6465 25.1143 17.3965 25.1143 17.1465C25.1143 15.334 26.583 13.8652 28.3955 13.8652C29.333 13.8652 30.1768 14.2402 30.8018 14.8965C31.5205 14.7402 32.2393 14.459 32.8643 14.084C32.6143 14.8652 32.1143 15.4902 31.4268 15.8965C32.083 15.834 32.7393 15.6465 33.3018 15.3965C32.8643 16.0527 32.3018 16.6152 31.6768 17.084Z" fill="white"/>
</g>
<defs>
<filter id="filter0_d_21439_28" x="0" y="0" width="50" height="48" filterUnits="userSpaceOnUse" color-interpolation-filters="sRGB">
<feFlood flood-opacity="0" result="BackgroundImageFix"/>
<feColorMatrix in="SourceAlpha" type="matrix" values="0 0 0 0 0 0 0 0 0 0 0 0 0 0 0 0 0 0 127 0" result="hardAlpha"/>
<feOffset dy="4"/>
<feGaussianBlur stdDeviation="2"/>
<feComposite in2="hardAlpha" operator="out"/>
<feColorMatrix type="matrix" values="0 0 0 0 0 0 0 0 0 0 0 0 0 0 0 0 0 0 0.25 0"/>
<feBlend mode="normal" in2="BackgroundImageFix" result="effect1_dropShadow_21439_28"/>
<feBlend mode="normal" in="SourceGraphic" in2="effect1_dropShadow_21439_28" result="shape"/>
</filter>
</defs>
</svg>
